<svg width="408.2000244140625" height="155.929362105037" viewBox="0 0 235.60669845181692 90" class="css-1j8o68f">
    <defs id="SvgjsDefs4160"></defs>
    <g id="SvgjsG4161" featurekey="symbolGroupContainer" transform="matrix(1,0,0,1,0,0)" fill="#7663d4">
        <rect width="103" height="90" rx="8"></rect>
    </g>
    <g id="SvgjsG4162" featurekey="symbolFeature-0"
        transform="matrix(0.6597486901758555,0,0,0.6597486901758555,18.527150008341202,11.854202392078928)"
        fill="#ffe98a">
        <defs xmlns="http://www.w3.org/2000/svg"></defs>
        <title xmlns="http://www.w3.org/2000/svg">The Noun Project</title>
        <g xmlns="http://www.w3.org/2000/svg" data-name="Shape 118">
            <path class="cls-1"
                d="M96.15,60.89a40.18,40.18,0,0,1-3,8.36C89.52,76.49,83.2,82,76.67,86.79a49,49,0,0,1-7.2,4.57C64.05,94,57.93,95,51.89,95.19c-12.82.48-26.34-2.34-36-10.84a39.5,39.5,0,0,1-7.35-8.78A44.13,44.13,0,0,1,9,29.35C17,17.14,30.71,9.64,44.88,6.32A54.67,54.67,0,0,1,55.52,4.78,41.1,41.1,0,0,1,89.61,21.51c8,11.14,9.87,26.05,6.55,39.38M75,12.89c-4.78-2.74-10.35-3.82-15.85-4.13-11.83-.66-24,2.22-33.79,8.87S8.21,34.79,6.23,46.48,7.9,70.85,16.37,79.14A34.45,34.45,0,0,0,37.5,88.76c2.45,0.2,5.19.24,6.93,2a5.45,5.45,0,0,0,3.62,1.18c17.25,1,34.64-9.34,41.94-25s4.06-35.64-7.82-48.2A31.78,31.78,0,0,0,75,12.89Z"
                style="fill: #ffe98a;"></path>
            <path class="cls-1"
                d="M28,68.87A5.08,5.08,0,0,1,26.89,72a8.38,8.38,0,0,1-2.41,2.62,3.66,3.66,0,0,1-3.42.38,3.41,3.41,0,0,1-1.82-2.77,5.53,5.53,0,0,1,.86-3.3A5.58,5.58,0,0,1,24.21,66,3.47,3.47,0,0,1,28,68.87M22.42,70c-0.44.77-.58,2,0.26,2.33a1.46,1.46,0,0,0,1.18-.21,2.55,2.55,0,0,0,1.35-1.67,1.41,1.41,0,0,0-1.09-1.66A2,2,0,0,0,22.42,70Z"
                style="fill: #ffe98a;"></path>
            <path class="cls-1"
                d="M58,78.25a5,5,0,0,1,3.45.21,3.29,3.29,0,0,1,2,1.2A2.58,2.58,0,0,1,63,82.41a25.64,25.64,0,0,0-1.86,2.28,1.84,1.84,0,0,1-2.13.69,3.6,3.6,0,0,1-1.81-1.54,4.91,4.91,0,0,1-.89-3A3,3,0,0,1,58,78.25m2.74,3.24a0.76,0.76,0,0,0-1.38-.3,1.51,1.51,0,0,0,.67.69,0.52,0.52,0,0,0,.72-0.41v0Z"
                style="fill: #ffe98a;"></path>
            <path class="cls-1"
                d="M82.31,51.85A3.21,3.21,0,0,1,81,49.06a4,4,0,0,1,4.15-3.19,3.79,3.79,0,0,1,3.28,4,3.62,3.62,0,0,1-4.13,3,4.49,4.49,0,0,1-2-1.08m3.48-2.17a1.16,1.16,0,1,0-1.83.83A1.22,1.22,0,0,0,85.78,49.68Z"
                style="fill: #ffe98a;"></path>
            <path class="cls-1"
                d="M79.28,68.41c-1.21,2.39-2.72,5-5.27,5.8-4,1.32-7.78-2.15-10.73-5.12a96.61,96.61,0,0,0-11.44-9.85c1.69,5.65,3.38,11.64,2,17.37a7.56,7.56,0,0,1-3.24,5,9.65,9.65,0,0,1-3.48.91,24.15,24.15,0,0,1-8.36.12C36,82,33.34,80.23,32.5,77.55c-1.06-3.38,1-6.88,2.9-9.84l9-13.85L30.62,59a31.53,31.53,0,0,1-8,2.18,10.62,10.62,0,0,1-7.81-2.09c-2.53-2.14-3.46-5.65-3.53-9-0.1-5.18,2.08-10.88,6.82-13s10.07-.05,14.78,2l7.71,3.29a77.55,77.55,0,0,1-6.46-10.28c-1.81-3.46-3.33-7.81-1.23-11.11a17.75,17.75,0,0,1,17.66-7.73,9.32,9.32,0,0,1,4.87,2.21c3,2.89,2.47,7.75,1.71,11.85L55,38.82,65.46,23.62c1.58-2.3,3.57-4.84,6.37-4.93,2.55-.08,4.64,2,6.06,4.08a25.18,25.18,0,0,1,4,17.72c-0.41,2.63-1.37,5.38-3.55,6.9-1.72,1.2-3.92,1.44-6,1.64l-7.1.69c4.69,2.16,11,.47,14.67,4.14a8.73,8.73,0,0,1,2.07,7.25,23,23,0,0,1-2.63,7.31m-29-21.58,4.68-23a6.88,6.88,0,0,0-3.87-7.19,10.19,10.19,0,0,0-8.5.15,20.24,20.24,0,0,0-6.81,5.43c-1.42,1.63-.7,4.15.21,6.11a52.82,52.82,0,0,0,14.3,18.47M73.81,23a2.5,2.5,0,0,0-2.27-1.11,2.56,2.56,0,0,0-1.17.87C63.67,30.24,58.87,39.17,54.13,48a0.89,0.89,0,0,0-.12.88,0.9,0.9,0,0,0,1,.16A111.47,111.47,0,0,1,74.7,46c1.73-.11,2.79-1.93,3.31-3.59A20.38,20.38,0,0,0,73.81,23M14.58,52.21a7.65,7.65,0,0,0,1.52,3.55c2.24,2.61,6.36,2.14,9.7,1.29a111.27,111.27,0,0,0,20.4-7.39c-2.11-2-4.85-3.24-7.53-4.41L27.38,40.33a13.71,13.71,0,0,0-3.85-1.24,8.27,8.27,0,0,0-7.71,4.15,12.76,12.76,0,0,0-1.23,9m57.95,2.07c-6.81-1.54-14-2.78-20.7-.92A245.24,245.24,0,0,0,70.29,70.69a3.43,3.43,0,0,0,4.14-.17,8.45,8.45,0,0,0,2.46-3.68,35.53,35.53,0,0,0,1.62-4.9,6.83,6.83,0,0,0,.16-3.72c-0.78-2.43-3.65-3.37-6.14-3.94M50.62,75.47c1.52-6.59-2-13.25-2.35-20A0.6,0.6,0,0,0,47.46,55a1.74,1.74,0,0,0-.77.72q-4.77,6.78-9.18,13.8a13.39,13.39,0,0,0-2,4.2,4.67,4.67,0,0,0,1.07,4.34c1.75,1.67,4.54,1.09,6.95,1.24,1.58,0.1,3.27.53,4.69-.17A5.22,5.22,0,0,0,50.62,75.47Z"
                style="fill: #ffe98a;"></path>
            <path class="cls-1"
                d="M23.66,32.06a3.49,3.49,0,0,1-1.62.21,2.61,2.61,0,0,1-2-2.8,3.75,3.75,0,0,1,2.19-2.89c1.57-.75,3.86-0.31,4.42,1.35s-1.18,3.55-3,4.14m0.54-2.38A1.11,1.11,0,0,0,24.63,29a1.1,1.1,0,0,0-.71-0.42,1.1,1.1,0,0,0-.42.71,1.08,1.08,0,0,0,.71.42h0Z"
                style="fill: #ffe98a;"></path>
            <path class="cls-1"
                d="M61.44,18.42a3,3,0,0,1-.22-3.13,3.2,3.2,0,0,1,1.25-1.46,2.76,2.76,0,0,1,3.8,1.51,3.12,3.12,0,0,1-1.91,3.76A2.7,2.7,0,0,1,61.44,18.42Z"
                style="fill: #ffe98a;"></path>
        </g>
    </g>
    <g id="SvgjsG4163" featurekey="nameLeftFeature-0"
        transform="matrix(1.194545550860263,0,0,1.194545550860263,120.61090961028411,15.168025498499759)"
        fill="#7663d4">
        <path
            d="M14 28.16 c0 1.8 -0.04 5.36 -0.08 5.36 l0 5.44 c0 0.24 -0.04 0.64 0.08 0.88 c0.12 0.28 0.48 0.2 0.72 0.16 c1.16 -0.12 2.32 0.04 3.48 0 c1.28 -0.04 0.88 -2 0.84 -2.8 c-0.16 -1.76 0.04 -15.16 0.04 -19.96 c0 -2.16 -0.08 -6.6 -0.2 -6.8 c-0.2 -0.36 -0.72 -0.44 -1.12 -0.48 c-0.88 -0.16 -1.32 0.08 -2.64 0.08 s-1.4 0.4 -1.4 1.8 l0 1.2 c-0.04 0.96 0.12 7.68 0.12 8.76 c0 0.52 -0.04 0.56 -0.56 0.56 c-1.32 -0.04 -3.16 0.12 -4.52 0 c-1.96 -0.16 -1.52 0 -1.64 -1.8 l0 -0.24 c0 -2.56 0.32 -9.2 0.2 -9.6 c-0.2 -0.6 -0.44 -0.72 -0.96 -0.68 c-1.2 0.08 -2.44 -0.12 -3.64 -0.04 c-0.4 0.04 -0.52 0.16 -0.64 0.56 c-0.04 0.2 -0.08 0.4 -0.08 0.6 c0 1.24 0.08 2.92 0.12 4.16 l-0.12 23.72 c0 1.04 0.92 0.92 2.96 0.92 c1.88 0 2.36 0.44 2.36 -1.8 c0 -1.8 -0.12 -4.08 -0.08 -5.88 c0.04 -1.4 0 -2.76 0 -4.16 c0.04 -0.52 0.16 -0.68 0.64 -0.68 c1.76 -0.04 3.68 0 5.44 0 c0.56 0 0.68 0.08 0.68 0.72 z">
        </path>
    </g>
    <g id="SvgjsG4164" featurekey="inlineSymbolFeature-0" transform="matrix(0.45,0,0,0.45,143.5,22.5)" fill="#7663d4">
        <path xmlns="http://www.w3.org/2000/svg"
            d="M50,10L10,90h80L50,10z M50,24.909L72.546,70H42.36l3.333-6.667h16.064L50,39.814L31.575,76.667h44.304l3.333,6.666H20.788  L50,24.909z">
        </path>
    </g>
    <g id="SvgjsG4165" featurekey="nameRightFeature-0"
        transform="matrix(1.1984749934819827,0,0,1.1984749934819827,186.6030477271264,15.049016379431537)"
        fill="#7663d4">
        <path
            d="M19.04 10.920000000000002 c0.12 0.56 0.04 27.2 0.04 27.88 c0 1.2 -0.44 1.16 -1.24 1.16 c-1.2 0 -2.88 0.2 -3.24 -0.2 c-0.32 -0.28 -6.24 -14.56 -7.08 -16.36 c-0.08 -0.16 -0.28 -0.56 -0.44 -0.48 c-0.2 0.08 -0.12 0.36 -0.12 0.52 c-0.04 1.4 0.2 13.48 0.2 15.4 c0 0.96 -0.04 1.12 -0.84 1.12 l-2 0 c-0.52 0 -1.16 -0.04 -1.68 0.04 c-0.4 0 -0.6 -0.12 -0.64 -0.52 l0 -3.16 c0.08 -3.36 0 -23.28 0 -24.76 c0 -1.28 0.36 -1.52 1.64 -1.52 c0.88 -0.04 1.76 -0.04 2.64 -0.04 c0.28 0 0.44 0.04 0.6 0.4 c1.08 2.52 5.68 14.08 6.4 15.48 c0.12 0.28 0.56 1.4 0.8 1.52 l0.04 0 c0.16 -0.16 0.12 -0.96 0.12 -1.2 c0 -0.6 -0.32 -14.64 -0.32 -14.92 c0 -0.4 -0.12 -0.76 0.08 -1.04 c0.12 -0.16 0.64 -0.2 0.84 -0.24 c1.12 -0.08 2.44 0.04 3.56 0 c0.56 0 0.52 0.4 0.64 0.92 z M26.8 39.68 c0.12 0.04 0.48 0.04 0.84 0.04 c0.8 0 1.04 -2.88 1.12 -3.48 c0.04 -0.48 0.16 -0.52 0.56 -0.6 c2 -0.24 3 -0.08 5 -0.04 c0.44 0 0.68 0.2 0.8 0.56 l0.28 0.92 c0.24 0.68 0.44 1.52 0.68 2.2 c0.16 0.48 0.2 0.44 0.68 0.44 c0.64 0 2.96 0 3.64 -0.04 c0.92 0 0.28 -1.88 0.16 -2.2 c-0.36 -1.12 -0.44 -2.28 -0.8 -3.4 c-0.16 -0.48 -4.72 -22.12 -4.92 -23.32 c-0.28 -0.72 -0.04 -0.76 -0.68 -0.76 c-1.36 0 -2.8 0.08 -4.2 0 c-0.56 0 -0.52 0.16 -0.6 0.76 c-0.08 0.56 -1.52 6.92 -2.08 9.56 c-0.72 3.32 -1.36 6.52 -2.16 9.8 c-0.28 1.16 -2.2 9.52 -1.96 9.56 c0.12 0.08 0.32 0.04 0.48 0.04 c1 0 1.92 0 3.16 -0.04 z M32.04 30.6 l-0.84 0 c-1.12 0 -1.16 0 -0.88 -1.16 c0.2 -0.88 1.28 -5.64 1.52 -6.8 c0.04 -0.08 0.12 -0.16 0.16 -0.16 c0.08 0 0.16 0.08 0.2 0.12 c0.16 0.48 0.32 1.68 0.48 2.16 c0.36 1.52 0.6 2.8 0.96 4.44 c0.36 1.44 0.2 1.44 -0.52 1.44 c-0.36 0 -0.72 -0.04 -1.08 -0.04 z">
        </path>
    </g>
</svg>